<?xml version="1.0" encoding="UTF-8"?>
<svg width="322px" height="58px" viewBox="0 0 322 58" version="1.1" xmlns="http://www.w3.org/2000/svg" xmlns:xlink="http://www.w3.org/1999/xlink">
    <!-- Generator: Sketch 50.2 (55047) - http://www.bohemiancoding.com/sketch -->
    <title>Logomark</title>
    <desc>Created with Sketch.</desc>
    <defs></defs>
    <g id="Symbols" stroke="none" stroke-width="1" fill="none" fill-rule="evenodd">
        <g id="Logomark" fill="#000000">
            <g>
                <path d="M45.4026567,20.4641681 C44.8689564,20.9322037 43.9175169,21.4393587 42.408626,21.384871 C41.7715387,21.3583257 41.4641721,21.5413485 41.3035031,21.731357 C41.2112931,21.8598922 41.1512169,22.019164 41.1386428,22.0526949 C41.0534184,22.3656501 41.1679824,22.7009591 41.3356369,22.965015 C41.5004972,23.1969372 41.4376268,23.3464291 41.1875421,23.4051082 C40.9402516,23.4707729 40.6091339,23.4763614 39.9622668,23.1634063 C39.6786512,23.0264884 39.5976181,23.2011285 39.5598959,23.3324579 C39.4523175,23.6496044 39.6576943,24.036607 40.0810221,24.3188255 C40.2975759,24.508834 40.2598536,24.6946511 39.918956,24.8134064 C39.3503277,25.0145918 38.8375842,24.7505359 38.0035029,24.2894859 C37.5117162,24.0156502 37.1330963,23.9709423 36.8019786,24.3607391 C36.6147644,24.57869 36.6315298,24.7784784 36.7391082,24.8916452 C37.0660345,25.2129831 37.2616315,25.8598502 36.4499041,26.8797486 C36.1816568,27.2164548 35.8938498,26.2831779 35.6465594,26.3935505 C34.5386423,26.9118824 33.6291164,26.2342786 33.2868217,25.7676402 C33.2113772,25.6726359 33.0562967,25.6432964 32.8662882,25.7676402 C32.3116311,26.1378773 31.1254752,26.7512135 30.6658223,25.6796215 C30.5945692,25.5259382 29.9421136,25.9241177 29.9504963,25.6181482 C29.9742473,23.8452014 31.5124778,23.5140837 32.1677276,23.4568017 C32.3675159,23.4358449 32.4080325,23.3394435 32.3018513,23.1773775 C32.0391925,22.7931691 31.722046,22.3363105 31.895289,21.8068016 C32.0168385,21.4142105 31.0109113,21.3233976 31.4258563,21.1208151 C33.451682,20.1106964 34.5833502,22.0457093 34.9354247,22.2538804 C35.5236127,22.5919837 38.1683632,21.7299599 38.489701,20.2965136 C38.55816,20.0156922 37.8749677,19.8899513 37.1931726,19.7195025 C37.0674317,19.690163 36.9989727,19.5322883 37.2239092,19.3534568 C38.8292015,18.1589181 40.114553,16.6095107 43.0163737,16.3217038 C43.3684482,16.2853786 43.5081604,16.5773769 43.5193373,16.7198833 C43.5766193,17.1697563 43.6925804,17.6098495 43.8867802,18.0220003 C44.3073137,18.9119665 44.8102773,19.4638293 45.3202266,19.8703916 C45.5717084,20.0687828 45.5423688,20.3426186 45.4026567,20.4641681 M57.0225137,16.3789857 C59.1489321,16.3887656 57.0574417,18.1407556 56.9484663,18.653499 C56.8730217,19.0265304 57.2153164,19.3618395 57.5492284,19.5560393 C57.8021073,19.6873687 57.8090929,19.8494348 57.6218787,20.0170893 C57.4234875,20.1903324 57.130092,20.348207 56.4133688,20.3635754 C56.1032079,20.3663696 56.1060022,20.5633637 56.1311504,20.6974873 C56.1744611,21.0244137 56.541904,21.2744984 57.0504561,21.3345746 C57.325689,21.4058278 57.3731911,21.5902478 57.130092,21.8487152 C56.7067643,22.2888084 56.1409302,22.2888084 55.1825051,22.2566746 C54.2799648,22.2245408 53.5604474,23.3198838 54.0899563,23.7767425 C54.4462222,24.0841091 55.1769166,24.7659043 54.548212,26.6128985 C54.3484237,27.1731441 54.0075261,26.1015521 53.7197192,26.2706038 C52.9708622,26.7148883 52.3212009,26.1546427 51.9817004,25.7508747 C51.8350027,25.5790288 51.7036733,25.5734403 51.6058748,25.7508747 C51.3040966,26.273398 50.5175174,27.1941009 48.9289906,26.3348714 C48.5825045,26.1504514 47.872767,26.7819502 47.8322505,26.5681906 C47.5723859,25.3317384 48.2080761,24.5982497 48.7473648,24.2140414 C48.8004555,24.1693335 49.0100236,23.8885122 48.6579491,23.898292 C48.1186603,23.8703496 47.4662047,23.6943123 47.3921573,23.0404596 C47.3809803,22.9007475 46.7061708,22.9328813 46.7424959,22.745667 C46.9003706,21.8361411 48.8996511,21.178097 50.2772126,22.0890201 C51.4424116,22.8616281 52.9065946,20.2336431 51.8545624,18.9999851 C51.0945285,18.1142103 46.6446974,20.5941004 45.1302181,17.3709418 C44.5224703,16.0730162 45.2852985,14.9664962 44.6663738,14.8770804 C44.0488463,14.7890618 41.2518096,14.1827112 38.1460092,16.6807639 C32.8970249,20.9028642 27.2079474,18.6032027 25.8695053,17.661543 C25.6613342,17.5958783 25.4545603,17.7635328 25.5453732,17.9772924 C25.7591327,18.5193754 25.6669227,19.0265304 25.405661,19.413533 C24.8593866,20.2406287 22.973273,21.085887 22.6393611,21.1850826 C20.4305125,21.8305526 20.6638317,23.5252606 20.8957538,24.2755147 C20.9642128,24.5046426 20.8817826,24.6415605 20.6428749,24.5996468 C19.9666682,24.4753031 18.6016808,24.0603581 18.0637891,22.7316958 C18.0051101,22.5794096 17.8528238,22.5738211 17.6684038,22.7037534 C16.8468966,23.28775 17.1374978,24.139994 17.3316976,24.5200109 C17.4057451,24.6681058 17.3638314,24.8106121 17.1696316,24.8329661 C16.4151861,24.923779 15.8758974,24.0463869 15.2276331,24.1078602 C14.8043054,24.1497738 14.3097245,24.4753031 14.038683,24.6625173 C13.9059565,24.7463446 13.889191,24.9601041 13.9688269,25.2018061 C14.7945256,27.6509595 13.439318,27.7319926 13.358285,27.6900789 C13.2590894,27.6355912 13.3163713,27.2276318 12.920986,27.1647614 C11.5937209,27.2388088 11.2123068,26.3711965 11.1410536,25.731315 C11.1131112,25.523144 11.0334753,25.4518908 10.8909689,25.546895 C10.3880053,25.8989696 9.14736168,26.5877503 8.36916517,25.5748374 C8.25599836,25.4281397 7.88576124,25.5804259 7.68457579,25.6670474 C7.52390685,25.7355064 7.51692124,25.4700534 7.52390685,25.3876232 C7.61611685,23.9918991 8.56057078,23.3631946 9.0830941,23.1186984 C9.27310259,23.0306797 9.2940594,22.9272928 9.14177319,22.814126 C8.72123971,22.5011708 7.97936836,21.8277584 8.21408472,21.0942698 C8.25460123,20.9573519 7.59516003,20.6946931 7.76002033,20.5759378 C9.28567668,19.4680207 11.248632,21.3066322 11.4987167,21.5064205 C11.7613754,21.7145916 13.1487168,21.7592995 16.6890219,19.7656075 C18.9411813,18.5026099 20.1203515,17.4533719 20.7616302,16.6570128 C20.8412661,16.5634057 21.0061264,16.3943541 21.2310629,16.3901627 C22.6575236,16.3412635 24.0714103,16.128901 25.1737389,15.1592989 C25.3553647,14.9678933 25.543976,15.0824573 25.6208177,15.1341507 C27.6452463,16.543846 28.6916901,13.4240744 29.1080322,11.9962165 C29.1625199,11.7056153 29.2239933,11.4681047 29.5313599,11.4527364 C36.99059,11.8103994 51.1280594,11.7601031 51.1280594,11.7601031 C51.1280594,11.7601031 52.9932162,11.9081979 52.8940206,10.7499844 C52.7459257,8.89321037 45.0366109,8.93093264 39.2776774,9.72449748 C37.1875841,10.0137016 34.1530368,10.1785619 32.3577361,9.48279551 C31.6130705,9.19498854 31.0109113,8.73114431 30.6769993,8.14016204 C30.3193363,7.38292235 30.4101492,6.92885797 30.4786081,6.45104252 C30.5680238,6.10176222 30.7398698,5.73431934 30.9787775,5.34452253 C32.4541375,3.06442074 35.8673045,2.88838347 36.9277195,2.88838347 C37.1316992,2.88838347 37.2602344,2.80176195 37.2853826,2.65226999 C37.3929609,2.12555529 37.7883462,0.908662734 39.2189983,0.831821068 C39.6227663,0.805275765 40.0321228,0.652989555 40.2863989,0.537028496 C40.4568477,0.46018683 40.564426,0.504894708 40.5336893,0.652989555 C40.4931728,0.837409553 40.4065513,1.08330288 40.1941889,1.26772288 C39.1896587,2.12834954 39.3391507,2.52513196 39.457906,2.63829877 C39.5291592,2.6927865 39.6199721,2.6662412 39.6940195,2.5935909 C42.7341552,-0.0553508914 44.5057049,1.69943333 45.0463908,2.27225302 C45.1344094,2.37424287 45.1595576,2.53491181 44.9835203,2.57961968 C42.9185752,3.04346392 42.1236133,4.88626678 37.9057044,4.58867996 C37.3929609,4.55514905 33.9392773,4.38190603 32.84114,5.94668176 C32.2096413,6.85620766 32.6497344,7.70565735 34.5134941,8.11641098 C35.9287779,8.42657189 39.2301753,7.94735932 40.7865683,7.82022129 C42.3108275,7.69448038 48.9527417,6.86459039 52.4371619,7.86632629 C53.9069334,8.28685977 56.0431317,9.47022142 55.6170098,11.6986297 C55.3403798,13.1055308 53.9865693,13.6601879 53.9865693,13.6601879 C53.9865693,13.6601879 50.16684,16.3496462 57.0225137,16.3789857 M7.16065534,12.9253021 C6.56687883,12.4027788 7.86061306,9.44088187 5.00629445,8.72276158 C4.55921567,8.69621628 5.19909718,9.25366763 5.03982536,9.38779127 C4.20993537,10.076572 4.42648916,10.3490107 4.37758992,10.7611614 C4.36082446,10.9665382 4.14427068,10.9455814 4.03948659,10.906462 C3.43593023,10.4985026 1.92983358,9.70354066 0.553669204,10.9791123 C0.29101042,11.2194172 1.07898677,11.2669193 1.05663283,11.4038372 C0.884786928,12.3664537 1.50091737,12.8875799 1.95498176,13.1320761 C2.10307661,13.2033293 2.10307661,13.3877493 2.02064646,13.5079017 C1.86975737,13.6699677 1.5023145,13.9116697 1.41429586,14.3098492 C1.35701389,14.5822879 0.395794509,14.4775038 0.68918996,14.7876647 C2.15616722,16.3342779 3.66086674,15.4359289 4.24905477,14.9776732 C4.666794,14.5599339 6.4131955,15.0405436 6.14355111,15.9347012 C5.8068449,17.0705607 5.89346641,17.6280121 6.17708202,17.4268266 C6.62695504,17.1390197 6.88262822,16.9392313 7.49736155,16.9392313 C7.61611685,16.9392313 7.95422018,17.016073 7.81869942,17.2899088 C7.60493988,17.8180206 7.37441488,18.2916446 7.58538018,19.0209419 C7.67339882,19.3338971 7.88715836,19.2598496 8.00731078,19.1396972 C8.71145987,18.1645066 10.234322,18.1812721 10.9761933,18.6562933 C12.044991,19.345074 15.0711555,20.3076905 19.0431711,16.5145065 C19.1619264,16.4041339 19.168912,15.9654379 18.8196317,16.0967673 C17.7382599,16.5228892 16.5101904,16.6234819 14.5109099,15.6021863 C14.3488439,15.5155648 13.5790301,15.2417291 13.3666677,15.1956241 C10.8867776,14.6661151 8.25180699,13.9004927 7.16065534,12.9253021 M40.2682363,5.22437011 C40.2682363,5.22437011 42.004858,5.16569102 43.1379232,4.16395512 C43.1379232,4.16395512 44.3548158,3.74901012 45.0631563,4.39168587 C45.1427922,4.46713042 45.1595576,4.64177057 44.968152,4.67530148 C44.7585838,4.71442087 44.4651884,4.80383663 44.1424534,5.01899329 C43.5207345,5.43393829 41.0408443,6.46501373 40.2682363,5.22437011 M21.5915202,14.2330076 C21.3777606,14.8058273 20.5730188,14.6144217 20.1427055,14.9664962 C20.0952034,15.0070127 19.9666682,15.0070127 19.9275488,14.9776732 C19.502824,14.6144217 18.7036707,14.7932532 18.4438061,14.1701371 C18.4228493,14.1212379 18.4228493,14.0206452 18.5388104,14.0024826 C19.1046444,13.9410092 19.6090052,13.6629821 19.9750509,13.2606112 C20.0057876,13.222889 20.1035861,13.1865638 20.183222,13.2829652 C20.5143397,13.6518052 20.9795811,13.9200524 21.4951188,14.0024826 C21.5593864,14.0122624 21.6501993,14.0667502 21.5915202,14.2330076 M16.5087933,3.94320997 C16.3453301,3.78952664 16.1245849,3.69312528 15.882883,3.69312528 C15.3855078,3.69312528 14.9831369,4.0968933 14.9831369,4.59706269 C14.9831369,4.88207541 15.1144663,5.13495435 15.3170489,5.30540314 C15.3938905,5.3556995 15.4874977,5.32216859 15.5042631,5.29422617 C15.7767018,4.85832435 16.113408,4.45874769 16.5018077,4.1429983 C16.5395299,4.11086451 16.5772522,3.99350633 16.5087933,3.94320997 M17.1598517,11.7866484 C17.1598517,11.3842775 16.4095977,9.63228748 16.1259821,9.15866339 C15.5280142,8.1178081 16.4179804,5.05811268 17.854221,4.69765542 C18.1643819,4.62360799 18.3208594,4.17094073 18.0805546,3.93482724 C17.4811896,3.33825649 16.7966002,2.5935909 15.8842801,2.5935909 C14.7665831,2.5935909 13.8640428,3.50311679 13.8640428,4.62360799 C13.8640428,5.90616525 14.846219,6.10874782 14.7777601,6.46361661 C14.3823748,7.65256674 14.3767863,8.95188946 14.9104866,9.86700384 C15.2807237,10.5012969 15.5629422,11.5114155 15.7836874,12.2365214 C15.9206052,12.981187 16.3704783,13.61548 17.0047713,13.9857171 C17.3205207,14.1701371 17.1668373,14.4146333 17.2995639,14.6800864 C17.3582429,14.8086215 17.4644242,14.8910517 17.5440601,14.963702 C17.6781837,15.0670889 17.5733996,15.0880457 17.4644242,15.0726774 C16.5185731,14.9553192 15.0655671,14.5571397 14.4634078,13.2885536 C14.1476584,12.6095527 13.1235686,15.0042185 12.517218,13.8599762 C11.8703509,12.6430837 11.5727641,11.7293664 11.2863542,10.5068853 C11.1298767,9.83067869 10.7037547,10.987495 10.5416886,10.583727 C10.2468961,9.82648732 10.0359308,9.01895127 10.0359308,8.15273613 C10.0359308,5.15451405 12.2377938,2.63969589 15.1968965,1.95091515 C15.768319,1.81958575 14.5318668,0.866749098 15.3394028,0.910059855 C15.8703089,0.940796521 17.6055334,0.946385006 18.9188273,1.58626651 C19.168912,1.69384485 19.3225953,1.2160294 19.8227647,0.897485764 C19.860487,0.870940461 19.9792423,0.826232583 20.0700552,0.894691522 C20.5883871,1.21463228 20.7700129,1.67987363 21.0200976,1.57089818 C22.3264059,0.944987885 24.0462621,0.944987885 24.5673883,0.908662734 C25.405661,0.856969249 24.137075,1.81818863 24.7126889,1.94951802 C27.675983,2.63829877 29.8750517,5.15311693 29.8750517,8.15133901 C29.8750517,9.01895127 29.6626893,9.82648732 29.3664996,10.5823299 C29.2072278,10.9860979 28.7839001,9.82928157 28.6246283,10.5054882 C28.3354242,11.7279693 28.0378374,12.6416865 27.3951616,13.8585791 C26.7790312,15.0028214 25.7619269,12.6067585 25.4447804,13.2871565 C24.8733579,14.4928721 23.5307244,14.9078171 22.5918589,15.0531177 C22.4856777,15.0642947 22.3864821,15.0503235 22.5150173,14.9287739 C22.5625194,14.8812718 22.788853,14.6717036 22.8517235,14.2427874 C22.8587091,14.1980795 22.8307667,14.1296206 22.9327565,14.0863099 C23.6383027,13.7482065 24.1734001,13.0915596 24.3298777,12.2979947 C24.5534171,11.5617118 24.8551953,10.5124738 25.2156525,9.8642096 C26.016203,8.43495461 25.0424095,6.70112721 25.2924942,6.31552176 C25.8415628,5.95925586 26.2076086,5.33334556 26.2076086,4.62360799 C26.2076086,3.50311679 25.2952885,2.5935909 24.18318,2.5935909 C23.5768294,2.5935909 23.0347464,2.86183816 22.6714949,3.27818028 L22.6142129,3.33266801 C22.4297929,3.53105922 22.2481671,3.73364179 22.0888953,3.94740133 C21.9044753,4.18211769 21.946389,4.60963678 22.2621383,4.69486117 C23.6452883,5.05531844 24.5450344,8.16670734 23.9819945,9.17682597 C23.7319098,9.62530187 22.9676845,11.3004502 22.9676845,11.7880455 C22.9676845,12.4153529 22.4647209,12.923905 21.8374135,12.923905 C21.3568038,12.923905 20.9530358,12.6263182 20.782587,12.1848279 C20.782587,12.1848279 20.8035438,12.1485028 20.8077352,12.1359287 C21.1919435,11.8984181 22.0316133,11.3912631 22.0316133,10.8673426 L21.8653559,9.16145764 C22.5513424,9.07902749 22.8698861,8.70599613 22.9523162,8.05354053 C23.0151867,8.01302401 23.0780571,7.96552189 23.1311477,7.91941689 C23.3616727,7.70845159 23.5125618,7.14261751 23.0207752,7.22225342 C22.3208174,7.35358281 21.5272526,7.32703751 20.7588359,7.54079705 C20.6568461,7.56873947 20.5827987,7.65955235 20.5618418,7.75874796 C20.5283109,7.9068428 20.978184,9.96619944 21.0801738,10.421661 C21.0857623,10.4719573 21.0536285,10.5054882 21.0284803,10.5054882 C20.7155252,10.4775458 20.1580738,10.4510005 20.0211559,10.4510005 C19.8870323,10.4537947 19.342155,10.4845314 19.0180229,10.5110767 C18.984492,10.5110767 18.938387,10.4691631 18.9523582,10.4272494 C19.0557452,9.94105126 19.5056182,7.89426871 19.5056182,7.89426871 C19.5140009,7.80625008 19.5056182,7.71823144 19.4581161,7.64697826 C19.3086241,7.45277841 17.3037552,7.28372675 17.0327137,7.22923902 C16.9195469,7.2082822 16.804983,7.2543872 16.7351269,7.34799432 C16.5353386,7.63160993 16.8832217,7.94735932 17.105364,8.07868871 C17.1905884,8.71018749 17.5258975,9.07623324 18.1895301,9.15866339 C18.1993099,9.16704612 18.211884,9.18940006 18.2202667,9.1921943 C18.1993099,9.30536112 18.0288611,10.8813138 18.0288611,10.8896966 C18.0288611,11.4359709 18.857354,11.8970209 19.2695047,12.1387229 C19.2890644,12.1666653 19.3198011,12.2015934 19.3267867,12.2407128 C19.1269984,12.6374952 18.7358044,12.9197137 18.2859314,12.9197137 C17.6628154,12.9225079 17.1598517,12.4139558 17.1598517,11.7866484 M23.6383027,4.04100845 C24.0113341,4.35955209 24.3228921,4.77449708 24.5827566,5.23834132 C24.6023163,5.28584344 24.7015119,5.34312541 24.7559997,5.29282905 C24.955788,5.12796874 25.0857203,4.87788405 25.0857203,4.59566557 C25.0857203,4.09549618 24.6833494,3.69172816 24.18318,3.69172816 C23.9833917,3.69172816 23.7989717,3.75459861 23.6522739,3.86776543 C23.6145517,3.89431073 23.6061689,4.01166891 23.6383027,4.04100845" id="Shape"></path>
                <path d="M63.8151355,42.540167 C61.3602685,43.7783658 62.0545608,46.6812968 63.569935,50.2201768 C65.0853092,53.7590568 66.3519425,56.909435 64.8365683,56.909435 L38.5280017,56.909435 C38.5280017,56.909435 38.5394508,55.209078 39.1763042,53.7590568 C39.5278854,52.9579826 40.0822102,52.2291206 40.6670658,51.5883576 C42.0605105,50.0622727 44.9695232,49.2255739 44.9695232,46.7896151 C44.9695232,44.5548878 43.4191311,44.2578549 39.0184027,43.0355428 C34.6176743,41.8132307 32.0507021,36.5065368 31.5636404,34.5 L72.1457501,34.5 C71.4702561,40.4700246 65.9966565,41.4391714 63.8151355,42.540167 Z M72.5,30.963795 C72.5,32.0882522 71.5784761,33 70.442555,33 L62.557445,33 C61.4210431,33 60.5,32.0882522 60.5,30.963795 L60.5,11.0366809 C60.5,9.91174779 61.4215239,9 62.557445,9 L70.442555,9 C71.5789569,9 72.5,9.91174779 72.5,11.0366809 L72.5,30.963795 Z M59.5,33 L31.5,33 C31.5,31.3434493 32.6500017,30 34.0674346,30 L56.9330404,30 C58.3509483,30 59.5,31.3434493 59.5,33 Z" id="Combined-Shape" fill-rule="nonzero"></path>
                <path d="M99.66,23.16 C98.059992,23.16 96.7900047,22.7000046 95.85,21.78 C94.9099953,20.8599954 94.44,19.4933424 94.44,17.68 L94.44,9 L97.04,9 L97.04,17.72 C97.04,19.7466768 97.9133246,20.76 99.66,20.76 C101.406675,20.76 102.28,19.7466768 102.28,17.72 L102.28,9 L104.88,9 L104.88,17.68 C104.88,19.4933424 104.410005,20.8599954 103.47,21.78 C102.529995,22.7000046 101.260008,23.16 99.66,23.16 Z M114.78,23.16 C113.953329,23.16 113.203337,22.9866684 112.53,22.64 C111.856663,22.2933316 111.296669,21.820003 110.85,21.22 C110.403331,20.619997 110.106667,19.9600036 109.96,19.24 L112.06,17.92 C112.273334,18.7733376 112.609998,19.4599974 113.07,19.98 C113.530002,20.5000026 114.119996,20.76 114.84,20.76 C115.386669,20.76 115.826665,20.6233347 116.16,20.35 C116.493335,20.0766653 116.66,19.6600028 116.66,19.1 C116.66,18.7533316 116.546668,18.446668 116.32,18.18 C116.093332,17.913332 115.810002,17.680001 115.47,17.48 C115.129998,17.279999 114.64667,17.0266682 114.02,16.72 L113.44,16.44 C112.639996,16.039998 112.000002,15.5366697 111.52,14.93 C111.039998,14.3233303 110.8,13.5466714 110.8,12.6 C110.8,11.8933298 110.963332,11.2533362 111.29,10.68 C111.616668,10.1066638 112.076664,9.6566683 112.67,9.33 C113.263336,9.0033317 113.939996,8.84 114.7,8.84 C116.633343,8.84 117.95333,9.6866582 118.66,11.38 L116.56,12.72 C116.213332,11.7333284 115.593338,11.24 114.7,11.24 C114.313331,11.24 113.980001,11.3633321 113.7,11.61 C113.419999,11.8566679 113.28,12.1599982 113.28,12.52 C113.28,12.8800018 113.403332,13.1966653 113.65,13.47 C113.896668,13.7433347 114.196665,13.9766657 114.55,14.17 C114.903335,14.3633343 115.41333,14.6133318 116.08,14.92 C116.733337,15.2266682 117.283331,15.5399984 117.73,15.86 C118.176669,16.1800016 118.543332,16.5966641 118.83,17.11 C119.116668,17.6233359 119.26,18.246663 119.26,18.98 C119.26,19.8200042 119.070002,20.5566635 118.69,21.19 C118.309998,21.8233365 117.780003,22.3099983 117.1,22.65 C116.419997,22.9900017 115.646671,23.16 114.78,23.16 Z M126.22,17.04 L122.18,9 L124.98,9 L127.52,14.44 L130.06,9 L132.86,9 L128.82,17.04 L128.82,23 L126.22,23 L126.22,17.04 Z M137.28,9 L141.66,9 C142.820006,9 143.893328,9.2533308 144.88,9.76 C145.866672,10.2666692 146.66333,11.0433281 147.27,12.09 C147.87667,13.1366719 148.18,14.4399922 148.18,16 C148.18,17.5600078 147.87667,18.8633281 147.27,19.91 C146.66333,20.9566719 145.866672,21.7333308 144.88,22.24 C143.893328,22.7466692 142.820006,23 141.66,23 L137.28,23 L137.28,9 Z M140.84,20.6 C142.17334,20.6 143.289996,20.2566701 144.19,19.57 C145.090004,18.8833299 145.54,17.6933418 145.54,16 C145.54,14.3066582 145.090004,13.1166701 144.19,12.43 C143.289996,11.7433299 142.17334,11.4 140.84,11.4 L139.88,11.4 L139.88,20.6 L140.84,20.6 Z" id="USYD"></path>
                <path d="M100.884,36.12 L93.864,36.12 L93.864,31.8 L112.584,31.8 L112.584,36.12 L105.564,36.12 L105.564,57 L100.884,57 L100.884,36.12 Z M120.216,57.288 C118.319991,57.288 116.676007,56.8800041 115.284,56.064 C113.891993,55.2479959 112.830004,54.1320071 112.098,52.716 C111.365996,51.2999929 111,49.7040089 111,47.928 C111,46.1519911 111.365996,44.5560071 112.098,43.14 C112.830004,41.7239929 113.891993,40.6080041 115.284,39.792 C116.676007,38.9759959 118.319991,38.568 120.216,38.568 C122.112009,38.568 123.755993,38.9759959 125.148,39.792 C126.540007,40.6080041 127.601996,41.7239929 128.334,43.14 C129.066004,44.5560071 129.432,46.1519911 129.432,47.928 C129.432,49.7040089 129.066004,51.2999929 128.334,52.716 C127.601996,54.1320071 126.540007,55.2479959 125.148,56.064 C123.755993,56.8800041 122.112009,57.288 120.216,57.288 Z M120.216,53.472 C121.608007,53.472 122.711996,52.9380053 123.528,51.87 C124.344004,50.8019947 124.752,49.4880078 124.752,47.928 C124.752,46.3679922 124.344004,45.0540053 123.528,43.986 C122.711996,42.9179947 121.608007,42.384 120.216,42.384 C118.823993,42.384 117.720004,42.9179947 116.904,43.986 C116.087996,45.0540053 115.68,46.3679922 115.68,47.928 C115.68,49.4880078 116.087996,50.8019947 116.904,51.87 C117.720004,52.9380053 118.823993,53.472 120.216,53.472 Z M135.624,36.516 C134.807996,36.516 134.124003,36.2400028 133.572,35.688 C133.019997,35.1359972 132.744,34.4520041 132.744,33.636 C132.744,32.8199959 133.019997,32.1360028 133.572,31.584 C134.124003,31.0319972 134.807996,30.756 135.624,30.756 C136.440004,30.756 137.123997,31.0319972 137.676,31.584 C138.228003,32.1360028 138.504,32.8199959 138.504,33.636 C138.504,34.4520041 138.228003,35.1359972 137.676,35.688 C137.123997,36.2400028 136.440004,36.516 135.624,36.516 Z M133.392,38.856 L137.856,38.856 L137.856,57 L133.392,57 L133.392,38.856 Z M142.896,31.512 L147.36,31.512 L147.36,57 L142.896,57 L142.896,31.512 Z M160.104,57.288 C158.13599,57.288 156.498007,56.8260046 155.19,55.902 C153.881993,54.9779954 152.922003,53.8020071 152.31,52.374 C151.697997,50.9459929 151.392,49.4640077 151.392,47.928 C151.392,46.3919923 151.697997,44.9100071 152.31,43.482 C152.922003,42.0539929 153.881993,40.8780046 155.19,39.954 C156.498007,39.0299954 158.13599,38.568 160.104,38.568 C162.000009,38.568 163.583994,39.0179955 164.856,39.918 C166.128006,40.8180045 167.063997,41.9519932 167.664,43.32 C168.264003,44.6880068 168.564,46.0919928 168.564,47.532 L168.564,49.368 L156.072,49.368 C156.12,50.4720055 156.521996,51.4319959 157.278,52.248 C158.034004,53.0640041 159.059994,53.472 160.356,53.472 C161.364005,53.472 162.209997,53.2440023 162.894,52.788 C163.578003,52.3319977 164.195997,51.6240048 164.748,50.664 L168.348,51.996 C167.603996,53.7000085 166.566007,55.0079954 165.234,55.92 C163.901993,56.8320046 162.19201,57.288 160.104,57.288 Z M163.992,45.84 C163.775999,44.831995 163.350003,44.0040032 162.714,43.356 C162.077997,42.7079968 161.208006,42.384 160.104,42.384 C159.047995,42.384 158.172003,42.7199966 157.476,43.392 C156.779997,44.0640034 156.348001,44.8799952 156.18,45.84 L163.992,45.84 Z M179.868,57.288 C177.77999,57.288 176.148006,56.7240056 174.972,55.596 C173.795994,54.4679944 173.208,52.800011 173.208,50.592 L173.208,42.672 L170.4,42.672 L170.4,38.856 L173.208,38.856 L173.208,34.32 L177.672,31.512 L177.672,38.856 L182.46,38.856 L182.46,42.672 L177.672,42.672 L177.672,50.52 C177.672,51.6000054 177.869998,52.3619978 178.266,52.806 C178.662002,53.2500022 179.255996,53.472 180.048,53.472 C180.648003,53.472 181.223997,53.3280014 181.776,53.04 L182.82,56.64 C181.883995,57.0720022 180.900005,57.288 179.868,57.288 Z M195.204,31.8 L204.384,31.8 C206.832012,31.8 208.721993,32.4539935 210.054,33.762 C211.386007,35.0700065 212.052,36.8039892 212.052,38.964 C212.052,40.6440084 211.644004,42.0779941 210.828,43.266 C210.011996,44.4540059 208.848008,45.2759977 207.336,45.732 L214.32,57 L209.1,57 L202.332,46.128 L199.884,46.128 L199.884,57 L195.204,57 L195.204,31.8 Z M204.42,41.808 C205.332005,41.808 206.051997,41.5800023 206.58,41.124 C207.108003,40.6679977 207.372,39.9480049 207.372,38.964 C207.372,37.9799951 207.108003,37.2600023 206.58,36.804 C206.051997,36.3479977 205.332005,36.12 204.42,36.12 L199.884,36.12 L199.884,41.808 L204.42,41.808 Z M224.256,57.288 C222.28799,57.288 220.650007,56.8260046 219.342,55.902 C218.033993,54.9779954 217.074003,53.8020071 216.462,52.374 C215.849997,50.9459929 215.544,49.4640077 215.544,47.928 C215.544,46.3919923 215.849997,44.9100071 216.462,43.482 C217.074003,42.0539929 218.033993,40.8780046 219.342,39.954 C220.650007,39.0299954 222.28799,38.568 224.256,38.568 C226.152009,38.568 227.735994,39.0179955 229.008,39.918 C230.280006,40.8180045 231.215997,41.9519932 231.816,43.32 C232.416003,44.6880068 232.716,46.0919928 232.716,47.532 L232.716,49.368 L220.224,49.368 C220.272,50.4720055 220.673996,51.4319959 221.43,52.248 C222.186004,53.0640041 223.211994,53.472 224.508,53.472 C225.516005,53.472 226.361997,53.2440023 227.046,52.788 C227.730003,52.3319977 228.347997,51.6240048 228.9,50.664 L232.5,51.996 C231.755996,53.7000085 230.718007,55.0079954 229.386,55.92 C228.053993,56.8320046 226.34401,57.288 224.256,57.288 Z M228.144,45.84 C227.927999,44.831995 227.502003,44.0040032 226.866,43.356 C226.229997,42.7079968 225.360006,42.384 224.256,42.384 C223.199995,42.384 222.324003,42.7199966 221.628,43.392 C220.931997,44.0640034 220.500001,44.8799952 220.332,45.84 L228.144,45.84 Z M234.552,38.856 L239.052,38.856 L242.724,51.492 L246.396,38.856 L250.896,38.856 L244.74,57 L240.708,57 L234.552,38.856 Z M256.116,36.516 C255.299996,36.516 254.616003,36.2400028 254.064,35.688 C253.511997,35.1359972 253.236,34.4520041 253.236,33.636 C253.236,32.8199959 253.511997,32.1360028 254.064,31.584 C254.616003,31.0319972 255.299996,30.756 256.116,30.756 C256.932004,30.756 257.615997,31.0319972 258.168,31.584 C258.720003,32.1360028 258.996,32.8199959 258.996,33.636 C258.996,34.4520041 258.720003,35.1359972 258.168,35.688 C257.615997,36.2400028 256.932004,36.516 256.116,36.516 Z M253.884,38.856 L258.348,38.856 L258.348,57 L253.884,57 L253.884,38.856 Z M271.02,57.288 C269.05199,57.288 267.414007,56.8260046 266.106,55.902 C264.797993,54.9779954 263.838003,53.8020071 263.226,52.374 C262.613997,50.9459929 262.308,49.4640077 262.308,47.928 C262.308,46.3919923 262.613997,44.9100071 263.226,43.482 C263.838003,42.0539929 264.797993,40.8780046 266.106,39.954 C267.414007,39.0299954 269.05199,38.568 271.02,38.568 C272.916009,38.568 274.499994,39.0179955 275.772,39.918 C277.044006,40.8180045 277.979997,41.9519932 278.58,43.32 C279.180003,44.6880068 279.48,46.0919928 279.48,47.532 L279.48,49.368 L266.988,49.368 C267.036,50.4720055 267.437996,51.4319959 268.194,52.248 C268.950004,53.0640041 269.975994,53.472 271.272,53.472 C272.280005,53.472 273.125997,53.2440023 273.81,52.788 C274.494003,52.3319977 275.111997,51.6240048 275.664,50.664 L279.264,51.996 C278.519996,53.7000085 277.482007,55.0079954 276.15,55.92 C274.817993,56.8320046 273.10801,57.288 271.02,57.288 Z M274.908,45.84 C274.691999,44.831995 274.266003,44.0040032 273.63,43.356 C272.993997,42.7079968 272.124006,42.384 271.02,42.384 C269.963995,42.384 269.088003,42.7199966 268.392,43.392 C267.695997,44.0640034 267.264001,44.8799952 267.096,45.84 L274.908,45.84 Z M281.208,38.856 L285.708,38.856 L288.948,51.312 L292.008,38.856 L296.184,38.856 L299.244,51.312 L302.484,38.856 L306.984,38.856 L301.188,57 L297.228,57 L294.096,45.264 L290.964,57 L287.004,57 L281.208,38.856 Z M315.588,57.288 C313.715991,57.288 312.150006,56.8080048 310.89,55.848 C309.629994,54.8879952 308.796002,53.7360067 308.388,52.392 L311.952,50.484 C312.288002,51.4200047 312.761997,52.1519974 313.374,52.68 C313.986003,53.2080026 314.711996,53.472 315.552,53.472 C316.200003,53.472 316.739998,53.3340014 317.172,53.058 C317.604002,52.7819986 317.82,52.3320031 317.82,51.708 C317.82,51.1559972 317.562003,50.7060017 317.046,50.358 C316.529997,50.0099983 315.732005,49.6440019 314.652,49.26 C314.483999,49.2119998 314.232002,49.1160007 313.896,48.972 C312.503993,48.4199972 311.424004,47.7240042 310.656,46.884 C309.887996,46.0439958 309.504,44.9640066 309.504,43.644 C309.504,42.7079953 309.755997,41.8560038 310.26,41.088 C310.764003,40.3199962 311.453996,39.7080023 312.33,39.252 C313.206004,38.7959977 314.195994,38.568 315.3,38.568 C316.524006,38.568 317.639995,38.8259974 318.648,39.342 C319.656005,39.8580026 320.435997,40.5839953 320.988,41.52 L318.324,43.968 C317.603996,42.9119947 316.632006,42.384 315.408,42.384 C314.927998,42.384 314.514002,42.5099987 314.166,42.762 C313.817998,43.0140013 313.644,43.343998 313.644,43.752 C313.644,44.1840022 313.895997,44.5859981 314.4,44.958 C314.904003,45.3300019 315.887993,45.7799974 317.352,46.308 C318.744007,46.8120025 319.817996,47.4719959 320.574,48.288 C321.330004,49.1040041 321.708,50.1479936 321.708,51.42 C321.708,53.1960089 321.144006,54.6179947 320.016,55.686 C318.887994,56.7540053 317.412009,57.288 315.588,57.288 Z" id="Toilet-Reviews"></path>
            </g>
        </g>
    </g>
</svg>